<svg width="113" height="48" fill="none" xmlns="http://www.w3.org/2000/svg"><path fill-rule="evenodd" clip-rule="evenodd" d="M18.048.388c-1.837 2.532-2.871 5.102-3.214 7.991-.134 1.12-.061 3.56.135 4.56.443 2.254 1.408 4.55 2.68 6.38.664.956.662.955 1.09.395 2.09-2.734 3.355-6.763 3.19-10.152-.161-3.33-1.253-6.348-3.32-9.18L18.328 0l-.28.388Zm1.262 2.828c1.242 2.382 1.808 4.66 1.808 7.282 0 .943-.216 3.143-.317 3.23-.018.017-.062-.457-.098-1.051-.121-2.018-.483-3.67-1.175-5.355-.391-.954-1.117-2.357-1.22-2.357-.103 0-.79 1.337-1.15 2.238-.75 1.877-1.076 3.303-1.153 5.044-.06 1.368-.13 1.724-.232 1.18-.037-.202-.12-.993-.182-1.759-.197-2.393.133-4.549 1.047-6.848.44-1.107 1.215-2.662 1.545-3.1l.145-.193.28.438c.152.24.469.804.702 1.251Zm5.367 12.082v5.532h2.341V11.149h2.248V9.764h-4.589v5.533ZM30.67 9.88c0 .063-.212 1.94-.471 4.17-.6 5.167-.746 6.461-.746 6.638 0 .128.117.142 1.157.142h1.158l.063-.875c.034-.48.088-1.14.12-1.464l.056-.59h1.17l.054.346c.03.19.083.85.117 1.464l.063 1.119H35.81l-.044-.264a539.38 539.38 0 0 1-.602-5.146 636.88 636.88 0 0 0-.614-5.268l-.057-.387h-1.911c-1.583 0-1.911.02-1.911.115Zm7.586-.03c-.508.092-.826.286-1.077.656-.161.238-.192.454-.22 1.558l-.03 1.281H39.287v-.875c.002-.917.107-1.258.404-1.307.396-.066.438.09.438 1.623 0 1.809.02 1.78-1.17 1.78h-.797v1.22h.709c.679 0 1.038.084 1.186.277.038.049.07.786.07 1.639.002 1.642-.024 1.745-.44 1.745-.323 0-.4-.28-.4-1.43v-1.01H36.93l.03 1.443c.035 1.603.095 1.799.662 2.15.29.179.4.19 2.008.215 1.57.023 1.731.012 2.082-.144.252-.111.453-.285.593-.513.2-.325.214-.454.239-2.175.023-1.626.008-1.863-.14-2.114-.212-.358-.713-.653-1.113-.653-.442 0-.48-.138-.054-.2.542-.08.941-.33 1.143-.717.155-.295.18-.538.181-1.727.003-2.48-.236-2.738-2.572-2.777-.722-.012-1.501.013-1.733.055Zm5.994 5.448v5.532h2.435V11.149h.843V20.83h2.341V9.765h-5.62v5.533Zm7.375-5.486c-.038.034-.07 2.527-.07 5.54v5.478h2.435v-3.742h.964c1.249 0 1.683-.166 2.033-.773.233-.406.234-.413.234-2.767 0-1.297-.033-2.495-.074-2.662-.087-.357-.44-.747-.85-.938-.244-.113-.658-.141-2.448-.167-1.184-.017-2.185-.003-2.224.03Zm8.64.038c-.553.1-.843.294-1.1.73l-.211.359v8.799l.21.358c.385.654.504.69 2.415.719 1.495.022 1.72.008 2.087-.133.325-.125.458-.24.636-.554l.224-.396v-8.868l-.212-.345c-.35-.568-.746-.692-2.316-.722-.722-.013-1.501.01-1.733.053Zm5.994 5.446v5.534h2.435l.003-3.478c.002-3.21.057-3.899.224-2.827.035.223.293 1.655.574 3.18.28 1.527.51 2.854.51 2.95 0 .168.04.175.982.175.941 0 .983-.007 1.029-.183.065-.25.335-1.71.808-4.373.219-1.23.433-2.272.475-2.315.043-.042.078 1.486.078 3.397v3.474h2.435V9.765h-1.54c-.847 0-1.56.028-1.583.061-.024.034-.24 1.013-.479 2.177-.24 1.163-.536 2.591-.659 3.173a95.508 95.508 0 0 0-.34 1.688c-.066.347-.146.63-.179.63s-.113-.265-.178-.59c-.065-.324-.216-1.065-.337-1.647-.12-.582-.37-1.808-.557-2.725-.186-.918-.39-1.906-.454-2.197l-.117-.529-1.565-.022-1.565-.023v5.535ZM12.455 9.932c-5.788.517-10.38 4.269-11.336 9.263-.193 1.007-.144 3.105.095 4.035 1.158 4.51 5.128 7.822 10.351 8.636 1.164.18 3.125.178 4.308-.005 2.395-.373 4.705-1.36 6.405-2.74l.713-.578v-7.55H13.72v3.355l.33-.218c1.755-1.163 4.334-.686 5.364.992.847 1.381.528 2.775-.901 3.934-1.256 1.019-3.03 1.619-4.784 1.618-5.632-.004-9.06-5.275-6.176-9.495.453-.664 1.41-1.518 2.216-1.977.785-.448 1.963-.848 2.734-.928.283-.03.674-.074.868-.099l.354-.045-.026-4.121-.026-4.122-.234-.01c-.129-.006-.571.019-.983.055Zm20.32 2.172c.035.526.124 1.67.197 2.543.073.872.133 1.705.133 1.85v.265h-1.044l.053-.508c.03-.28.12-1.46.2-2.624.08-1.164.165-2.198.19-2.299.103-.43.213-.117.272.773Zm21.913-.775c.123.152.146.508.146 2.238 0 1.968-.008 2.063-.193 2.224-.108.093-.284.156-.398.142-.205-.025-.205-.026-.23-2.405l-.025-2.38h.277c.18 0 .328.064.423.181Zm7.339-.083c.161.14.161 7.963 0 8.103-.172.15-.526.116-.634-.06-.063-.102-.097-1.513-.097-4.02 0-3.405.018-3.88.147-3.993.176-.152.428-.165.584-.03Zm-43.294 1.652c.902 2.082.79 4.685-.277 6.455l-.125.206-.163-.275c-.791-1.328-1.09-3.422-.713-5.004.167-.704.586-1.755.787-1.976.134-.147.21-.056.491.594Zm5.85 15.295v3.783H76V24.41H24.583v3.783Zm3.352-1.485.026.875H29.266v-1.79h1.03V30.512h-1.03v-2.116h-1.311v2.116H26.83v-4.727l.538.024.539.024.027.875Zm12.57-.508v.406H38.632v.977h1.685v.813h-1.685v1.383H40.505v.733H37.6v-4.72h2.904v.408Zm10.19-.102c.028.247.053.264.38.264.226 0 .503.084.777.235.578.319.845.8.849 1.536.006 1.096-.648 1.809-1.657 1.809-.316 0-.33.013-.33.285v.285h-1.125v-.285c0-.28-.007-.285-.39-.285a1.74 1.74 0 0 1-1.39-.744c-.311-.472-.335-1.483-.046-1.976.28-.479.787-.794 1.354-.841.466-.039.472-.043.472-.318v-.278l.539.024c.532.024.539.027.568.289Zm12.334.102v.366l-.632.024-.633.024v3.898h-1.03v-3.906h-1.311v-.817l1.803.022 1.803.023v.366Zm8.1.477v.883l.605.043c.757.052 1.146.245 1.426.705.397.653.211 1.615-.392 2.027-.235.16-.369.177-1.463.177H70.1v-4.72h1.03v.885Zm-22.193.618c-.146.136-.231.333-.261.606-.088.796.178 1.309.68 1.309h.234v-1.058c0-1.053 0-1.058-.218-1.058-.12 0-.315.09-.434.201Zm1.777.857v1.058h.227c.506 0 .816-.741.615-1.468-.114-.413-.36-.648-.675-.648-.152 0-.167.099-.167 1.058Zm20.437.956.027.712.412-.008c.51-.01.665-.169.665-.681 0-.538-.19-.735-.712-.735h-.42l.028.712Z" fill="#fff"/></svg>