<svg width="147" height="32" fill="none" xmlns="http://www.w3.org/2000/svg"><g clip-path="url(#a)" fill="#fff"><path d="m96.045 20.037-2.326-5.402-2.313 5.402-.161.368h4.95l-.15-.368Zm-.767-9.386 7.037 16.016h-3.432l-1.45-3.351H90.03l-.105.23-1.36 3.12h-3.34l7.107-16.108h2.854l.093.092Zm22.831 11.001-3.662-11.09h-2.672l-3.662 11.09-3.549-11.09h-3.476l5.62 16.109h2.701l3.661-10.582 3.662 10.582h2.73l5.607-16.11h-3.395l-3.565 11.091Zm12.827-1.901h5.955v-2.944h-5.955v-3.31h8.636v-2.923h-11.858V26.67h12.173v-2.936h-8.951v-3.997.013Zm12.839-9.177v16.084h3.229V10.562l-3.229.012Zm-81.894 6.48h-7.38v-6.492h-3.27v16.12h3.27V20.13h7.38v6.553h3.27V10.562h-3.27v6.496-.004Zm18.422-6.496h3.267v9.096c0 4.619-2.544 7.267-6.977 7.267s-6.908-2.604-6.908-7.138V10.57h3.27v9.108c0 2.693 1.325 4.134 3.686 4.134 2.362 0 3.662-1.405 3.662-4.037V10.558ZM24.944 24.967a.158.158 0 0 0 .174 0c1.865-.933 9.637-4.881 12.85-8.026a6.266 6.266 0 0 0 2.14-4.272c.23-3.634-3.443-7.037-3.443-7.037a97.071 97.071 0 0 0-11.781 19.113.217.217 0 0 0 .056.206l.004.016Zm17.858-8.495s-11.079 5.955-16.812 9.823a.17.17 0 0 0-.068.186s.056.105.137.105c2.05 0 9.81 0 10.016-.024a7.503 7.503 0 0 0 2.245-.517 7.606 7.606 0 0 0 4.19-4.038 7.877 7.877 0 0 0 .288-5.551l.004.016ZM26.28 27.555a.222.222 0 0 0-.15.105.186.186 0 0 0 .045.173c1.243.897 5.03 3.545 6.863 4.038 0 0 3.375 1.15 6.299-3.88l-13.045-.448-.012.012Zm-3.085-3.634a.149.149 0 0 0 .186-.069c1.243-1.796 6.896-10.182 8.034-15.273 0 0 .622-2.463.024-4.146A6.055 6.055 0 0 0 27.133.395s-.99-.254-2.051-.403c0 0-3.868 4.974-1.983 23.768a.142.142 0 0 0 .093.149l.004.012ZM18.872.004c-.565.044-2.095.404-2.095.404a6.056 6.056 0 0 0-4.272 4.037c-.634 1.97 0 4.146 0 4.146 1.151 5.112 6.815 13.53 8.039 15.294.08.093.15.056.15.056a.173.173 0 0 0 .124-.161C22.708 4.986 18.86.012 18.86.012l.012-.008Zm-.86 26.493c.069-.105-.044-.194-.044-.194-5.721-3.868-16.824-9.81-16.824-9.81a7.716 7.716 0 0 0 6.957 10.093c.193.036 7.747 0 9.774 0a.214.214 0 0 0 .137-.081v-.008Zm-.194 1.17a.177.177 0 0 0-.173-.116l-13.037.448c1.417 2.523 3.8 4.477 6.274 3.88 1.716-.428 5.584-3.133 6.864-4.038.105-.08.069-.15.069-.161l.003-.012Zm1.208-2.68a.137.137 0 0 0 .036-.162A96.375 96.375 0 0 0 7.265 5.644S3.559 9.169 3.82 12.701a6.218 6.218 0 0 0 2.152 4.248c3.23 3.153 11.066 7.138 12.883 8.05a.16.16 0 0 0 .174-.036"/></g><defs><clipPath id="a"><path fill="#fff" transform="translate(.76)" d="M0 0h146.241v32H0z"/></clipPath></defs></svg>