<svg width="100" height="32" fill="none" xmlns="http://www.w3.org/2000/svg"><g clip-path="url(#a)" fill="#fff"><path d="M72.184 2.58h-2.32v15.773h2.32V2.58ZM76.111 15.502c-.869 0-1.568.698-1.568 1.566 0 .868.7 1.567 1.568 1.567.869 0 1.568-.7 1.568-1.567 0-.868-.7-1.567-1.568-1.567ZM82.214 12.86c0-1.882 1.13-3.494 3.32-3.494h1.384V7.169h-1.383c-1.714 0-2.498.546-3.298 1.452l-.015.023V7.169h-2.298v11.174h2.29V12.86ZM67.34 7.17h-2.32v11.173h2.32V7.169ZM66.181 5.32c.869 0 1.568-.699 1.568-1.566a1.569 1.569 0 0 0-3.136 0c0 .867.707 1.566 1.568 1.566ZM60.225 8.302c-.892-.906-2.26-1.413-3.62-1.413a5.882 5.882 0 0 0-5.88 5.875 5.882 5.882 0 0 0 5.88 5.875c1.36 0 2.798-.584 3.62-1.506v1.221h2.283V7.174h-2.283v1.128Zm-3.544 8.002c-1.998 0-3.52-1.536-3.52-3.54 0-2.005 1.522-3.525 3.52-3.525 1.999 0 3.575 1.428 3.575 3.525 0 2.096-1.576 3.54-3.575 3.54ZM93.344 18.635c1.038 0 2.36-.561 3.19-1.513.007.422 0 .806 0 1.22h2.283V7.17h-2.29v6.136c0 1.59-1.215 3.072-3.037 3.072-1.591 0-2.721-1.152-2.721-2.803V7.177h-2.29v6.589c.007 2.949 1.598 4.869 4.865 4.869ZM44.021 6.89c-1.522 0-3.013.69-3.92 1.78-.83-1.097-2.037-1.78-3.659-1.78a4.054 4.054 0 0 0-2.774 1.067v-.784h-2.283v11.174h2.283v-6.535a2.648 2.648 0 0 1 2.644-2.642 2.653 2.653 0 0 1 2.644 2.642v6.535h2.283v-6.535a2.648 2.648 0 0 1 2.644-2.642 2.653 2.653 0 0 1 2.644 2.642v6.535h2.283v-6.535c.015-2.995-1.93-4.923-4.789-4.923ZM74.167 23.511l-.015.015v-.867H72.69v6.558h1.461v-3.072c0-1.106.66-2.05 1.944-2.05h.807v-1.436h-.807c-.999 0-1.46.322-1.929.852ZM89.871 26.254c0 1.052-.845 1.682-1.667 1.682-.87 0-1.484-.63-1.484-1.528v-3.74h-1.468v3.847c0 1.82 1.045 2.872 2.86 2.872.591 0 1.29-.3 1.752-.752v.591h1.46v-6.558h-1.468l.015 3.586ZM80.71 22.499a3.446 3.446 0 0 0-3.444 3.44 3.446 3.446 0 0 0 3.443 3.44 3.446 3.446 0 0 0 3.444-3.44 3.441 3.441 0 0 0-3.444-3.44Zm0 5.422a1.987 1.987 0 0 1-1.984-1.982c0-1.09.892-1.98 1.983-1.98 1.092 0 1.983.89 1.983 1.98 0 1.09-.884 1.982-1.983 1.982ZM96.25 22.499c-.753 0-1.484.261-1.999.707v-.546h-1.46v8.816h1.46v-2.841c.492.46 1.253.752 1.999.752a3.446 3.446 0 0 0 3.443-3.44 3.448 3.448 0 0 0-3.443-3.448Zm-.046 5.39c-1.145 0-1.976-.82-1.976-1.95 0-1.128.83-1.942 1.976-1.942 1.107 0 1.944.837 1.944 1.942 0 1.114-.837 1.95-1.944 1.95ZM69.778 23.206c-.515-.446-1.245-.707-1.999-.707a3.446 3.446 0 0 0-3.443 3.44 3.446 3.446 0 0 0 3.443 3.44c.746 0 1.507-.291 1.999-.752v.13c-.023 1.345-.677 2.028-1.953 2.028h-.015c-.722 0-1.36-.276-1.952-.852l-.054-.054-1.06 1.013.045.054c.546.638 1.653 1.367 2.983 1.367h.069c1.245-.023 3.336-.507 3.397-3.502v-6.158h-1.46v.553Zm-1.953 4.684c-1.106 0-1.944-.837-1.944-1.95 0-1.107.838-1.944 1.945-1.944 1.145 0 1.975.815 1.975 1.943-.008 1.13-.83 1.95-1.975 1.95ZM16.012 12.562a3.689 3.689 0 0 1-3.69 3.687 3.689 3.689 0 0 1-3.69-3.687 3.689 3.689 0 0 1 7.38 0ZM12.322.314C5.558.314.055 5.812.055 12.57S5.558 24.82 12.322 24.82c2.475 0 4.866-.738 6.91-2.135l.038-.023-1.652-1.92-.03.015a9.756 9.756 0 0 1-5.266 1.544c-5.373 0-9.746-4.37-9.746-9.738 0-5.367 4.373-9.737 9.746-9.737s9.746 4.37 9.746 9.737c0 .7-.077 1.398-.23 2.097-.308 1.267-1.192 1.65-1.86 1.597-.669-.054-1.453-.53-1.46-1.697v-1.997c0-3.417-2.783-6.197-6.204-6.197-3.42 0-6.202 2.78-6.202 6.197 0 3.418 2.782 6.198 6.202 6.198 1.66 0 3.221-.653 4.397-1.828a3.992 3.992 0 0 0 3.067 1.828c.108.007.223.015.33.015.892 0 1.776-.3 2.49-.837.739-.56 1.284-1.367 1.584-2.335.046-.153.139-.514.139-.514v-.015c.176-.776.26-1.552.26-2.512C24.59 5.812 19.087.314 12.323.314Z"/></g><defs><clipPath id="a"><path fill="#fff" d="M0 0h100v32H0z"/></clipPath></defs></svg>