<svg width="95" height="32" fill="none" xmlns="http://www.w3.org/2000/svg"><path fill-rule="evenodd" clip-rule="evenodd" d="M9.802 7.362v7.249h2.811V0H9.802v7.362Zm-3.214 3.012v7.219H9.4V3.079H6.588v7.295Zm6.56.004v7.224h2.746l.037-7.262.038-7.261h-2.82v7.3Zm-9.773 2.169v6.532l1.308 1.303c.719.716 1.349 1.302 1.399 1.302.05 0 .08-3.508.065-7.797L6.119 6.09l-1.372-.038-1.372-.038v6.533Zm12.987 1.35v7.85l1.407-1.402 1.408-1.402-.035-6.427-.035-6.426-1.372-.02-1.373-.022v7.85ZM.027 9v7.163l1.106.987c.608.543 1.24 1.102 1.406 1.242l.3.255V9.015L1.361 9C.638 8.991.027 9 .027 9Zm19.625 0v9.606s.673-.527 1.403-1.172l1.327-1.17.003-3.587V9h-2.733Zm-.076 19.298v3.56H21.718v-2.41l2.176-.01c2.466-.012 2.964-.127 3.414-.79.25-.368.301-.626.301-1.502 0-1.23-.202-1.733-.839-2.078-.373-.203-.901-.242-3.814-.282l-3.38-.047v3.56Zm10.577-3.384c-.623.184-1.042.594-1.204 1.178-.073.263-.134 1.321-.134 2.352 0 2.07.13 2.544.846 3.07.354.26.556.276 3.237.276 2.69 0 2.881-.016 3.237-.28.698-.515.78-.856.776-3.2-.006-3.38-.093-3.46-3.812-3.505-1.417-.017-2.678.03-2.946.109Zm9.172.045c-1.145.416-1.34 1.029-1.245 3.898.067 2.013.185 2.323 1.054 2.766.68.347 5.325.347 6.006 0 .7-.357.953-.795.985-1.712l.029-.798h-2.14l-.07.398c-.094.55-.539.736-1.765.738-1.155.002-1.635-.13-1.775-.49-.053-.134-.09-.812-.084-1.506.015-1.71.056-1.75 1.76-1.75.718 0 1.4.036 1.512.079.113.043.274.287.358.54l.152.463 1.026-.04 1.026-.038-.017-.677c-.02-.845-.33-1.457-.89-1.764-.597-.326-5.095-.408-5.922-.107Zm8.059-.012c-.041.106-.08 1.705-.088 3.552l-.013 3.358h2.285V30.53c0-.75.057-1.347.131-1.372.073-.025.886-.026 1.808-.004l1.676.041v2.662h2.28l-.035-3.513-.036-3.514H53.25l-.01 1.316-.01 1.316-1.78-.005c-.98-.002-1.797-.022-1.819-.044-.021-.022-.06-.612-.084-1.311L49.5 24.83l-1.022-.039c-.794-.03-1.037.004-1.095.155Zm10.686-.06c-1.302.314-1.473.712-1.473 3.423 0 2.342.084 2.685.78 3.2.356.265.572.283 3.849.322l3.472.042V30.25H62.16c-1.654 0-2.658-.055-2.882-.157-.314-.143-.597-.699-.437-.859.036-.037 1.354-.079 2.928-.094l2.862-.028v-1.606l-2.544-.027c-1.4-.015-2.71-.03-2.913-.034-.436-.007-.503-.377-.13-.714.197-.179.685-.222 2.912-.255l2.675-.04.04-.837.04-.837-3.12.014c-1.716.007-3.3.057-3.521.11Zm12.653.545v.67h-1.908c-2.097 0-2.5.12-3.005.89-.357.545-.337 2.04.034 2.538.632.848.846.918 2.947.968l1.932.046V31.857h2.128l.04-.69.041-.689 1.69.015c1.495.014 1.755-.019 2.272-.28.792-.402 1.125-1.006 1.102-1.998-.02-.928-.38-1.587-1.036-1.898-.347-.165-.88-.215-2.274-.215h-1.82v-1.339h-2.143v.67Zm7.23.209v.877l1.372-.025 1.373-.026.036 2.695.036 2.695h2.271v-5.354l1.372-.016a35.872 35.872 0 0 1 1.473 0c.056.009.1-.375.1-.854v-.87H77.954v.878Zm8.97 2.67v3.546l3.248-.003c2.884-.002 3.308-.03 3.8-.253.733-.334 1.043-1.087.963-2.347-.062-.972-.34-1.478-.993-1.813-.344-.176-1.866-.265-4.574-.268-.29 0-.3-.045-.3-1.205v-1.205h-2.143v3.547Zm-61.617-1.647c.226.225.2.718-.05.967-.168.169-.54.21-1.874.21h-1.664v-1.338h1.714c1.154 0 1.766.053 1.874.16Zm9.132-.03c.145.091.22.462.268 1.339.081 1.481-.03 1.977-.483 2.15-.431.163-2.21.167-2.637.004-.452-.172-.521-.43-.503-1.878.022-1.716.053-1.747 1.802-1.744.744.001 1.442.06 1.553.129Zm36.285 1.676v.736h-1.196c-1.302 0-1.616-.143-1.616-.736s.314-.736 1.616-.736h1.196v.736Zm4.743-.526c.116.116.21.353.21.526 0 .593-.314.736-1.615.736h-1.196v-1.472h1.196c.908 0 1.246.05 1.405.21Zm17.27 1.56c.101.287.077.42-.118.635-.222.245-.408.272-1.899.272h-1.653v-.66c0-.788-.02-.782 2.14-.678 1.382.065 1.405.072 1.53.43Z" fill="#fff"/><path d="M6.588 32V18.487H9.4V32H6.588ZM13.082 32V18.487h2.812V32h-2.812ZM9.802 32V15.505h2.811V32H9.802Z" fill="#fff"/></svg>