<svg width="136" height="32" fill="none" xmlns="http://www.w3.org/2000/svg"><path fill-rule="evenodd" clip-rule="evenodd" d="M128.983 6.622v3.73c-1.933-.73-3.653-1.098-5.159-1.098-.893 0-1.603.165-2.137.484-.534.322-.807.719-.807 1.187 0 .622.603 1.175 1.817 1.671l3.508 1.707c2.836 1.352 4.243 3.147 4.243 5.402 0 1.875-.747 3.37-2.252 4.476-1.495 1.118-3.508 1.671-6.013 1.671a27.88 27.88 0 0 1-3.117-.154c-.922-.099-1.982-.303-3.158-.595V21.2c2.156.73 4.119 1.098 5.886 1.098 2.109 0 3.158-.611 3.158-1.845 0-.613-.429-1.109-1.302-1.497l-3.896-1.66c-1.437-.65-2.505-1.438-3.204-2.37-.689-.942-1.038-2.022-1.038-3.255 0-1.726.727-3.117 2.164-4.174 1.448-1.049 3.37-1.575 5.759-1.575.777 0 1.671.07 2.663.196.999.135 1.96.3 2.885.504ZM18.648 6.622v3.73c-1.932-.73-3.65-1.098-5.156-1.098-.895 0-1.603.165-2.137.484-.534.322-.806.719-.806 1.187 0 .622.61 1.175 1.825 1.671l3.508 1.707c2.824 1.352 4.234 3.147 4.234 5.402 0 1.875-.749 3.37-2.244 4.476-1.506 1.118-3.507 1.671-6.021 1.671-1.156 0-2.197-.05-3.12-.154-.922-.099-1.97-.303-3.154-.595V21.2c2.163.73 4.127 1.098 5.883 1.098 2.109 0 3.158-.611 3.158-1.845 0-.613-.427-1.109-1.291-1.497l-3.896-1.66c-1.448-.65-2.516-1.438-3.205-2.37-.7-.942-1.04-2.022-1.04-3.255 0-1.726.72-3.117 2.166-4.174 1.437-1.049 3.362-1.575 5.752-1.575.784 0 1.668.07 2.67.196.991.135 1.952.3 2.874.504ZM22.668 6.272h5.713v19.23h-5.713V6.273ZM46.785 6.272v3.554h-8.488v4.265h7.362v3.205h-7.362v4.476h8.661v3.73h-14.16V6.273h13.987ZM73.456 6.272v19.23h-5.334V12.82l-5.533 12.86h-3.293l-5.322-12.86v12.684h-3.857V6.272h6.974l4.76 11.772 4.98-11.772h6.625ZM91.851 6.272v3.554H83.41v4.265h7.362v3.205H83.41v4.476h8.615v3.73h-14.16V6.273h13.986ZM111.898 6.272v19.23h-6.06l-6.8-12.333v12.334h-3.854V6.272h6.236l6.624 12.122V6.272h3.854Z" fill="#fff"/></svg>